<svg width="96" height="32" viewBox="0 0 96 32" fill="none" xmlns="http://www.w3.org/2000/svg">
<path d="M26.0519 8.75379C25.3084 8.02359 24.4325 7.44044 23.4706 7.03529C21.8929 6.37176 20.1439 6.22544 18.477 6.61752C16.8101 7.0096 15.3119 7.91972 14.1993 9.21606C13.5228 8.42784 12.7018 7.77502 11.78 7.29245C10.6379 6.6986 9.3657 6.396 8.07728 6.41176C6.9977 6.40771 5.92862 6.62264 4.93524 7.04345C3.9747 7.45033 3.10104 8.03604 2.36115 8.7691C1.62602 9.49658 1.03972 10.3592 0.63481 11.3091C0.207929 12.3017 -0.00813347 13.3714 0.000234066 14.4512V22.5303H3.95316V14.4471C3.95074 13.6393 4.18815 12.8488 4.63554 12.1748C5.08293 11.5009 5.72036 10.9735 6.46781 10.659C6.97861 10.4479 7.52627 10.3393 8.07934 10.3393C8.63241 10.3393 9.18 10.4479 9.69081 10.659C10.1872 10.8605 10.6389 11.1575 11.0199 11.5329C11.4009 11.9083 11.7038 12.3549 11.9113 12.8469C12.1257 13.3506 12.2336 13.8929 12.228 14.4399V22.5161H16.181V14.4471C16.1769 13.6378 16.4146 12.8457 16.8638 12.1712C17.313 11.4967 17.9535 10.9704 18.7038 10.659C19.2087 10.4421 19.7542 10.3347 20.304 10.3437C21.4094 10.3414 22.4714 10.7712 23.2615 11.5407C23.6395 11.9174 23.94 12.3639 24.1462 12.8551C24.3606 13.3588 24.4685 13.9011 24.463 14.4481V22.5242H28.4159V14.4481C28.4208 13.3907 28.214 12.3429 27.8076 11.3659C27.4012 10.3889 26.8033 9.50227 26.0489 8.75787" fill="white"/>
<path d="M46.2072 11.3069C45.7949 10.3583 45.2121 9.49326 44.4876 8.75471C43.7539 8.02869 42.8912 7.44568 41.9436 7.03556C40.9513 6.61763 39.8854 6.40234 38.8085 6.40234C37.7317 6.40234 36.6658 6.61763 35.6735 7.03556C34.7141 7.44347 33.8392 8.02648 33.0937 8.75471C32.3569 9.48787 31.7658 10.3539 31.3516 11.3069C30.7278 12.788 30.5603 14.4213 30.8707 15.998C31.181 17.5747 31.955 19.0231 33.0937 20.1578C33.8397 20.8909 34.7142 21.4809 35.6735 21.8984C36.6644 22.3167 37.7293 22.5316 38.8049 22.5303H46.8467V14.4583C46.8499 13.3753 46.6323 12.3031 46.2072 11.3069ZM42.9142 18.6081H38.8049C38.2505 18.6079 37.7014 18.5008 37.1876 18.2927C36.6931 18.0887 36.2423 17.7921 35.8594 17.4188C35.4801 17.0409 35.1824 16.5892 34.9848 16.0917C34.7703 15.5827 34.6629 15.0351 34.6691 14.4828C34.6665 13.9358 34.7738 13.3939 34.9848 12.8892C35.1921 12.4005 35.4888 11.9546 35.8594 11.5743C36.4439 10.9965 37.1864 10.6046 37.9935 10.4478C38.8006 10.291 39.6362 10.3764 40.3947 10.6933C40.8834 10.9007 41.3277 11.1997 41.7035 11.5743C42.085 11.9473 42.3851 12.3949 42.5852 12.8892C42.7989 13.3931 42.9065 13.9356 42.901 14.4828L42.9142 18.6081Z" fill="white"/>
<path d="M64.6474 11.2952C64.2425 10.3406 63.6501 9.47674 62.9053 8.75473C62.164 8.02862 61.2945 7.44588 60.3408 7.03593C58.3741 6.20717 56.1588 6.19084 54.1801 6.99052C52.2014 7.79019 50.6206 9.34067 49.7841 11.3023C49.3591 12.2952 49.144 13.3652 49.1526 14.445V31.7463C50.1974 31.7461 51.1994 31.3313 51.9382 30.5933C52.677 29.8553 53.0922 28.8544 53.0925 27.8106V22.5236H57.2019C58.2807 22.5318 59.3494 22.3167 60.3408 21.8918C62.2809 21.0618 63.8244 19.5144 64.6484 17.5733C65.0655 16.5792 65.2803 15.5121 65.2803 14.4342C65.2803 13.3564 65.0655 12.2893 64.6484 11.2952H64.6474ZM61.0896 16.0974C60.882 16.5913 60.5829 17.0415 60.2079 17.4243C59.8295 17.803 59.3774 18.1004 58.8796 18.298C58.3674 18.5116 57.8171 18.6189 57.2622 18.6134H53.1528V14.4715C53.1487 13.6621 53.3857 12.8698 53.8334 12.1952C54.2811 11.5206 54.9193 10.9942 55.6672 10.6828C56.1715 10.4693 56.7145 10.3619 57.2622 10.3674C57.8166 10.3677 58.3658 10.4748 58.8796 10.6828C59.629 10.9915 60.2696 11.5159 60.7199 12.1893C61.1702 12.8626 61.4098 13.6546 61.4084 14.4644C61.405 15.0243 61.295 15.5785 61.0845 16.0974H61.0896Z" fill="white"/>
<path d="M74.141 16.3603C73.7862 16.0097 73.3681 15.7297 72.9088 15.5349C72.4364 15.3366 71.929 15.2344 71.4166 15.2344C70.9041 15.2344 70.3969 15.3366 69.9244 15.5349C69.4695 15.7255 69.0581 16.0062 68.7149 16.3603C68.3646 16.7098 68.0843 17.123 67.8893 17.5776C67.6894 18.0496 67.5863 18.5568 67.5859 19.0694V22.9144H71.4166C71.9274 22.9129 72.4328 22.8076 72.9017 22.6049C73.3626 22.4105 73.7811 22.128 74.1338 21.7733C74.4901 21.422 74.7729 21.0033 74.9656 20.5416C75.1638 20.0692 75.2659 19.5621 75.2659 19.0498C75.2659 18.5375 75.1638 18.0304 74.9656 17.558C74.7676 17.1092 74.4876 16.7013 74.14 16.3551" fill="#EA4C89"/>
<path d="M79.4864 0.257812C79.1066 0.257813 78.7354 0.37042 78.4197 0.581392C78.104 0.792364 77.8579 1.09223 77.7126 1.44306C77.5672 1.79389 77.5292 2.17994 77.6033 2.55238C77.6774 2.92483 77.8602 3.26694 78.1287 3.53546C78.3973 3.80398 78.7394 3.98684 79.1118 4.06092C79.4843 4.135 79.8703 4.09698 80.2211 3.95166C80.572 3.80634 80.8718 3.56025 81.0828 3.24451C81.2937 2.92876 81.4064 2.55755 81.4064 2.17781C81.4064 1.6686 81.2041 1.18024 80.8441 0.820166C80.484 0.460097 79.9956 0.257812 79.4864 0.257812Z" fill="white"/>
<path d="M81.4064 6.40234H77.5664V22.5303H81.4064V6.40234Z" fill="white"/>
<path d="M91.7755 6.4024C90.7017 6.39832 89.6384 6.61342 88.6503 7.03457C87.6911 7.44251 86.8175 8.02848 86.0757 8.76155C85.3396 9.48898 84.7511 10.3522 84.3424 11.3035C83.9176 12.2968 83.7027 13.3674 83.7112 14.448V22.5303H87.6806V14.448C87.6724 13.6383 87.9061 12.8446 88.3519 12.169C88.7976 11.4935 89.4349 10.9669 90.1818 10.657C90.6851 10.4434 91.2269 10.336 91.7735 10.3415H92.0671C93.1099 10.3415 94.11 9.92656 94.8474 9.18804C95.5847 8.44952 95.9989 7.44786 95.9989 6.40343H91.7816L91.7755 6.4024Z" fill="white"/>
</svg>
